<svg xmlns="http://www.w3.org/2000/svg" viewBox="0 0 32 32" fill="none">
  <!-- Background circle with jungle gradient -->
  <circle cx="16" cy="16" r="15" fill="url(#jungleGradient)" stroke="#8B7355" stroke-width="2"/>
  
  <!-- Zen/meditation symbol in center -->
  <circle cx="16" cy="16" r="8" fill="none" stroke="#F5F5DC" stroke-width="1.5" opacity="0.8"/>
  
  <!-- Leaf elements -->
  <path d="M12 8 C10 10, 10 12, 12 14 C14 12, 14 10, 12 8 Z" fill="#4A5D23" opacity="0.7"/>
  <path d="M20 8 C22 10, 22 12, 20 14 C18 12, 18 10, 20 8 Z" fill="#4A5D23" opacity="0.7"/>
  
  <!-- Central healing hands/energy symbol -->
  <path d="M14 14 Q16 12, 18 14 Q16 16, 14 14" fill="#D4AF37" opacity="0.9"/>
  <path d="M14 18 Q16 16, 18 18 Q16 20, 14 18" fill="#D4AF37" opacity="0.9"/>
  
  <!-- Energy dots -->
  <circle cx="12" cy="16" r="1" fill="#F5F5DC" opacity="0.6"/>
  <circle cx="20" cy="16" r="1" fill="#F5F5DC" opacity="0.6"/>
  <circle cx="16" cy="12" r="1" fill="#F5F5DC" opacity="0.6"/>
  <circle cx="16" cy="20" r="1" fill="#F5F5DC" opacity="0.6"/>
  
  <!-- Gradient definitions -->
  <defs>
    <radialGradient id="jungleGradient" cx="0.3" cy="0.3">
      <stop offset="0%" stop-color="#2D3A1F"/>
      <stop offset="100%" stop-color="#1A1A1A"/>
    </radialGradient>
  </defs>
</svg>